<?xml version="1.0" ?><!DOCTYPE svg  PUBLIC '-//W3C//DTD SVG 1.1//EN'  'http://www.w3.org/Graphics/SVG/1.1/DTD/svg11.dtd'><!-- Uploaded to: SVG Repo, www.svgrepo.com, Generator: SVG Repo Mixer Tools -->
<svg width="800px" height="800px" viewBox="0 0 32 32" style="fill-rule:evenodd;clip-rule:evenodd;stroke-linejoin:round;stroke-miterlimit:2;" version="1.1" xml:space="preserve" xmlns="http://www.w3.org/2000/svg" xmlns:serif="http://www.serif.com/" xmlns:xlink="http://www.w3.org/1999/xlink"><path d="M12.317,2.068c0.033,-0.241 -0.112,-0.471 -0.344,-0.545c-0.232,-0.073 -0.483,0.031 -0.595,0.246c-0.717,1.379 -7.191,14.491 -7.191,21.096c-0,4.214 3.421,7.635 7.635,7.635c4.213,0 7.634,-3.421 7.634,-7.635c0,-4.627 -3.653,-12.1 -5.761,-16.881c-0.527,-1.194 -0.954,-2.216 -1.192,-2.975c-0.132,-0.42 -0.214,-0.738 -0.186,-0.941Zm-0.697,1.457c-1.804,3.711 -6.433,13.832 -6.433,19.34c-0,3.662 2.973,6.635 6.635,6.635c3.661,0 6.634,-2.973 6.634,-6.635c0,-4.521 -3.616,-11.806 -5.676,-16.477c-0.495,-1.124 -0.904,-2.102 -1.16,-2.863Z" style="fill:#32b2ff;"/><path d="M26,5.5l-10,-0c-0.276,0 -0.5,0.224 -0.5,0.5c0,0.276 0.224,0.5 0.5,0.5l10,0c0.276,0 0.5,-0.224 0.5,-0.5c0,-0.276 -0.224,-0.5 -0.5,-0.5Z" style="fill:#32b2ff;"/><path d="M26,8.5l-7,0c-0.276,-0 -0.5,0.224 -0.5,0.5c-0,0.276 0.224,0.5 0.5,0.5l7,0c0.276,-0 0.5,-0.224 0.5,-0.5c-0,-0.276 -0.224,-0.5 -0.5,-0.5Z" style="fill:#32b2ff;"/><path d="M26,11.5l-5,0c-0.276,-0 -0.5,0.224 -0.5,0.5c-0,0.276 0.224,0.5 0.5,0.5l5,0c0.276,-0 0.5,-0.224 0.5,-0.5c-0,-0.276 -0.224,-0.5 -0.5,-0.5Z" style="fill:#32b2ff;"/><path d="M26,14.448l-3,-0c-0.276,-0 -0.5,0.224 -0.5,0.5c0,0.276 0.224,0.5 0.5,0.5l3,-0c0.276,-0 0.5,-0.224 0.5,-0.5c0,-0.276 -0.224,-0.5 -0.5,-0.5Z" style="fill:#32b2ff;"/><path d="M13.311,12.202c0,-0 1.441,3.266 2.4,6.356c0.082,0.264 0.362,0.411 0.626,0.329c0.263,-0.082 0.411,-0.362 0.329,-0.626c-0.975,-3.141 -2.44,-6.463 -2.44,-6.463c-0.111,-0.252 -0.406,-0.367 -0.659,-0.256c-0.252,0.112 -0.367,0.407 -0.256,0.66Z" style="fill:#32b2ff;"/><path d="M16.125,24.808c-0.254,0.614 -0.683,1.275 -1.411,1.782c-0.226,0.157 -0.282,0.469 -0.124,0.696c0.157,0.226 0.469,0.282 0.696,0.124c0.907,-0.632 1.445,-1.453 1.763,-2.218c0.106,-0.255 -0.015,-0.548 -0.27,-0.654c-0.255,-0.106 -0.548,0.015 -0.654,0.27Z" style="fill:#32b2ff;"/></svg>